<?xml version="1.0" encoding="UTF-8" standalone="no"?>
<!DOCTYPE svg PUBLIC "-//W3C//DTD SVG 1.1//EN"
 "http://www.w3.org/Graphics/SVG/1.1/DTD/svg11.dtd">
<!-- Generated by graphviz version 2.44.0 (0)
 -->
<!-- Title: snakemake_dag Pages: 1 -->
<svg width="336pt" height="404pt"
 viewBox="0.00 0.00 336.00 404.00" xmlns="http://www.w3.org/2000/svg" xmlns:xlink="http://www.w3.org/1999/xlink">
<g id="graph0" class="graph" transform="scale(1 1) rotate(0) translate(4 400)">
<title>snakemake_dag</title>
<polygon fill="white" stroke="transparent" points="-4,4 -4,-400 332,-400 332,4 -4,4"/>
<!-- 0 -->
<g id="node1" class="node">
<title>0</title>
<path fill="none" stroke="#d85656" stroke-width="2" d="M154,-36C154,-36 124,-36 124,-36 118,-36 112,-30 112,-24 112,-24 112,-12 112,-12 112,-6 118,0 124,0 124,0 154,0 154,0 160,0 166,-6 166,-12 166,-12 166,-24 166,-24 166,-30 160,-36 154,-36"/>
<text text-anchor="middle" x="139" y="-15.5" font-family="sans" font-size="10.00">all</text>
</g>
<!-- 1 -->
<g id="node2" class="node">
<title>1</title>
<path fill="none" stroke="#d8b456" stroke-width="2" d="M42,-108C42,-108 12,-108 12,-108 6,-108 0,-102 0,-96 0,-96 0,-84 0,-84 0,-78 6,-72 12,-72 12,-72 42,-72 42,-72 48,-72 54,-78 54,-84 54,-84 54,-96 54,-96 54,-102 48,-108 42,-108"/>
<text text-anchor="middle" x="27" y="-87.5" font-family="sans" font-size="10.00">fastqc</text>
</g>
<!-- 1&#45;&gt;0 -->
<g id="edge6" class="edge">
<title>1&#45;&gt;0</title>
<path fill="none" stroke="grey" stroke-width="2" d="M54.11,-72.05C68.86,-62.84 87.29,-51.32 103.21,-41.37"/>
<polygon fill="grey" stroke="grey" stroke-width="2" points="105.12,-44.3 111.75,-36.03 101.41,-38.36 105.12,-44.3"/>
</g>
<!-- 2 -->
<g id="node3" class="node">
<title>2</title>
<path fill="none" stroke="#5682d8" stroke-width="2" d="M230,-396C230,-396 174,-396 174,-396 168,-396 162,-390 162,-384 162,-384 162,-372 162,-372 162,-366 168,-360 174,-360 174,-360 230,-360 230,-360 236,-360 242,-366 242,-372 242,-372 242,-384 242,-384 242,-390 236,-396 230,-396"/>
<text text-anchor="middle" x="202" y="-375.5" font-family="sans" font-size="10.00">trimmomatic</text>
</g>
<!-- 2&#45;&gt;0 -->
<g id="edge1" class="edge">
<title>2&#45;&gt;0</title>
<path fill="none" stroke="grey" stroke-width="2" d="M172.95,-359.91C137.44,-336.58 82,-291.16 82,-235 82,-235 82,-235 82,-161 82,-117.8 105,-72.19 121.78,-44.66"/>
<polygon fill="grey" stroke="grey" stroke-width="2" points="124.83,-46.37 127.19,-36.04 118.91,-42.65 124.83,-46.37"/>
</g>
<!-- 4 -->
<g id="node5" class="node">
<title>4</title>
<path fill="none" stroke="#56d86b" stroke-width="2" d="M228,-324C228,-324 176,-324 176,-324 170,-324 164,-318 164,-312 164,-312 164,-300 164,-300 164,-294 170,-288 176,-288 176,-288 228,-288 228,-288 234,-288 240,-294 240,-300 240,-300 240,-312 240,-312 240,-318 234,-324 228,-324"/>
<text text-anchor="middle" x="202" y="-303.5" font-family="sans" font-size="10.00">hisat2_align</text>
</g>
<!-- 2&#45;&gt;4 -->
<g id="edge8" class="edge">
<title>2&#45;&gt;4</title>
<path fill="none" stroke="grey" stroke-width="2" d="M202,-359.7C202,-351.98 202,-342.71 202,-334.11"/>
<polygon fill="grey" stroke="grey" stroke-width="2" points="205.5,-334.1 202,-324.1 198.5,-334.1 205.5,-334.1"/>
</g>
<!-- 6 -->
<g id="node7" class="node">
<title>6</title>
<path fill="none" stroke="#56d89a" stroke-width="2" d="M316,-180C316,-180 286,-180 286,-180 280,-180 274,-174 274,-168 274,-168 274,-156 274,-156 274,-150 280,-144 286,-144 286,-144 316,-144 316,-144 322,-144 328,-150 328,-156 328,-156 328,-168 328,-168 328,-174 322,-180 316,-180"/>
<text text-anchor="middle" x="301" y="-159.5" font-family="sans" font-size="10.00">multiqc</text>
</g>
<!-- 2&#45;&gt;6 -->
<g id="edge11" class="edge">
<title>2&#45;&gt;6</title>
<path fill="none" stroke="grey" stroke-width="2" d="M220.57,-359.82C230.17,-350.09 241.44,-337.24 249,-324 273.84,-280.5 288.66,-223.51 295.79,-190.3"/>
<polygon fill="grey" stroke="grey" stroke-width="2" points="299.24,-190.91 297.84,-180.41 292.38,-189.49 299.24,-190.91"/>
</g>
<!-- 3 -->
<g id="node4" class="node">
<title>3</title>
<path fill="none" stroke="#56b1d8" stroke-width="2" d="M221,-252C221,-252 183,-252 183,-252 177,-252 171,-246 171,-240 171,-240 171,-228 171,-228 171,-222 177,-216 183,-216 183,-216 221,-216 221,-216 227,-216 233,-222 233,-228 233,-228 233,-240 233,-240 233,-246 227,-252 221,-252"/>
<text text-anchor="middle" x="202" y="-231.5" font-family="sans" font-size="10.00">sort_bam</text>
</g>
<!-- 3&#45;&gt;0 -->
<g id="edge5" class="edge">
<title>3&#45;&gt;0</title>
<path fill="none" stroke="grey" stroke-width="2" d="M171.7,-215.8C159.12,-206.9 145.88,-194.77 139,-180 118.88,-136.78 125.57,-79.7 132.27,-46.4"/>
<polygon fill="grey" stroke="grey" stroke-width="2" points="135.73,-46.98 134.42,-36.47 128.89,-45.51 135.73,-46.98"/>
</g>
<!-- 5 -->
<g id="node6" class="node">
<title>5</title>
<path fill="none" stroke="#ced856" stroke-width="2" d="M243.5,-180C243.5,-180 160.5,-180 160.5,-180 154.5,-180 148.5,-174 148.5,-168 148.5,-168 148.5,-156 148.5,-156 148.5,-150 154.5,-144 160.5,-144 160.5,-144 243.5,-144 243.5,-144 249.5,-144 255.5,-150 255.5,-156 255.5,-156 255.5,-168 255.5,-168 255.5,-174 249.5,-180 243.5,-180"/>
<text text-anchor="middle" x="202" y="-159.5" font-family="sans" font-size="10.00">feature_counts_all</text>
</g>
<!-- 3&#45;&gt;5 -->
<g id="edge9" class="edge">
<title>3&#45;&gt;5</title>
<path fill="none" stroke="grey" stroke-width="2" d="M202,-215.7C202,-207.98 202,-198.71 202,-190.11"/>
<polygon fill="grey" stroke="grey" stroke-width="2" points="205.5,-190.1 202,-180.1 198.5,-190.1 205.5,-190.1"/>
</g>
<!-- 3&#45;&gt;6 -->
<g id="edge10" class="edge">
<title>3&#45;&gt;6</title>
<path fill="none" stroke="grey" stroke-width="2" d="M226.22,-215.88C238.92,-206.89 254.66,-195.76 268.42,-186.03"/>
<polygon fill="grey" stroke="grey" stroke-width="2" points="270.54,-188.82 276.69,-180.19 266.5,-183.11 270.54,-188.82"/>
</g>
<!-- 4&#45;&gt;3 -->
<g id="edge7" class="edge">
<title>4&#45;&gt;3</title>
<path fill="none" stroke="grey" stroke-width="2" d="M202,-287.7C202,-279.98 202,-270.71 202,-262.11"/>
<polygon fill="grey" stroke="grey" stroke-width="2" points="205.5,-262.1 202,-252.1 198.5,-262.1 205.5,-262.1"/>
</g>
<!-- 5&#45;&gt;0 -->
<g id="edge4" class="edge">
<title>5&#45;&gt;0</title>
<path fill="none" stroke="grey" stroke-width="2" d="M193.73,-143.89C188.78,-133.54 182.42,-120.06 177,-108 167.68,-87.25 157.59,-63.54 150.15,-45.82"/>
<polygon fill="grey" stroke="grey" stroke-width="2" points="153.19,-44.02 146.1,-36.14 146.73,-46.72 153.19,-44.02"/>
</g>
<!-- 7 -->
<g id="node8" class="node">
<title>7</title>
<path fill="none" stroke="#70d856" stroke-width="2" d="M269.5,-108C269.5,-108 198.5,-108 198.5,-108 192.5,-108 186.5,-102 186.5,-96 186.5,-96 186.5,-84 186.5,-84 186.5,-78 192.5,-72 198.5,-72 198.5,-72 269.5,-72 269.5,-72 275.5,-72 281.5,-78 281.5,-84 281.5,-84 281.5,-96 281.5,-96 281.5,-102 275.5,-108 269.5,-108"/>
<text text-anchor="middle" x="234" y="-87.5" font-family="sans" font-size="10.00">generate_report</text>
</g>
<!-- 5&#45;&gt;7 -->
<g id="edge12" class="edge">
<title>5&#45;&gt;7</title>
<path fill="none" stroke="grey" stroke-width="2" d="M209.91,-143.7C213.55,-135.73 217.95,-126.1 221.99,-117.26"/>
<polygon fill="grey" stroke="grey" stroke-width="2" points="225.21,-118.65 226.18,-108.1 218.84,-115.74 225.21,-118.65"/>
</g>
<!-- 6&#45;&gt;0 -->
<g id="edge3" class="edge">
<title>6&#45;&gt;0</title>
<path fill="none" stroke="grey" stroke-width="2" d="M304.04,-143.92C306.51,-124.37 307.29,-92.42 291,-72 263.31,-37.31 211.48,-25.26 176.11,-21.12"/>
<polygon fill="grey" stroke="grey" stroke-width="2" points="176.46,-17.63 166.16,-20.11 175.75,-24.6 176.46,-17.63"/>
</g>
<!-- 6&#45;&gt;7 -->
<g id="edge13" class="edge">
<title>6&#45;&gt;7</title>
<path fill="none" stroke="grey" stroke-width="2" d="M284.44,-143.7C276.32,-135.22 266.41,-124.86 257.53,-115.58"/>
<polygon fill="grey" stroke="grey" stroke-width="2" points="259.81,-112.91 250.37,-108.1 254.76,-117.75 259.81,-112.91"/>
</g>
<!-- 7&#45;&gt;0 -->
<g id="edge2" class="edge">
<title>7&#45;&gt;0</title>
<path fill="none" stroke="grey" stroke-width="2" d="M210.52,-71.7C198.44,-62.8 183.55,-51.82 170.48,-42.2"/>
<polygon fill="grey" stroke="grey" stroke-width="2" points="172.34,-39.22 162.21,-36.1 168.19,-44.85 172.34,-39.22"/>
</g>
</g>
</svg>
